<svg xmlns="http://www.w3.org/2000/svg" viewBox="0 0 220 64" role="img" aria-labelledby="logoTitle logoDesc">
  <title id="logoTitle">Davivienda Fan Shop</title>
  <desc id="logoDesc">Isotipo geométrico con los colores de Davivienda y el texto Davivienda Fan Shop</desc>
  <defs>
    <linearGradient id="roofGradient" x1="12" y1="6" x2="12" y2="34" gradientUnits="userSpaceOnUse">
      <stop offset="0" stop-color="#ff9259" />
      <stop offset="1" stop-color="#e50914" />
    </linearGradient>
    <linearGradient id="doorGradient" x1="12" y1="26" x2="12" y2="52" gradientUnits="userSpaceOnUse">
      <stop offset="0" stop-color="#fde68a" />
      <stop offset="1" stop-color="#f59e0b" />
    </linearGradient>
    <filter id="softShadow" x="-20%" y="-20%" width="140%" height="140%" color-interpolation-filters="sRGB">
      <feDropShadow dx="0" dy="4" stdDeviation="4" flood-color="#000" flood-opacity="0.12" />
    </filter>
  </defs>
  <g filter="url(#softShadow)">
    <path d="M12 6L2.8 18.2a2.4 2.4 0 00-.5 1.4v12.4c0 1.3 1 2.3 2.3 2.3h17.8c1.3 0 2.3-1 2.3-2.3V19.6c0-.5-.2-1-.5-1.4L12 6z" fill="url(#roofGradient)" />
    <path d="M6.2 30.6h11.5c1.5 0 2.7 1.2 2.7 2.7V46c0 1.5-1.2 2.7-2.7 2.7H6.2A2.7 2.7 0 013.5 46V33.3c0-1.5 1.2-2.7 2.7-2.7z" fill="url(#doorGradient)" />
    <circle cx="12" cy="24.5" r="3" fill="#fff7ed" />
  </g>
  <g fill="#1f2937" font-family="'Montserrat', 'Poppins', 'Helvetica Neue', Arial, sans-serif" letter-spacing="0.02em">
    <text font-size="18" font-weight="600" x="62" y="31">Davivienda</text>
    <text font-size="18" font-weight="700" x="62" y="52" fill="#e50914">Fan Shop</text>
  </g>
  <path d="M56 12h4v40h-4z" fill="#fbbf24" opacity="0.8" />
</svg>